<svg version="1.1" id="Layer_1" xmlns="http://www.w3.org/2000/svg" xmlns:xlink="http://www.w3.org/1999/xlink" x="0px" y="0px"
	 width="100%" viewBox="0 0 496 496" enable-background="new 0 0 496 496" xml:space="preserve">
<path fill="#000000" opacity="1.000000" stroke="none" 
	d="
M304.125000,77.803322 
	C334.493805,73.219429 363.715729,76.399208 391.994232,86.863403 
	C428.309418,100.301514 457.463776,122.614677 474.505219,158.206757 
	C486.193481,182.618332 489.849670,208.285156 480.037689,234.308243 
	C467.703033,267.022186 443.043396,286.411469 410.178741,296.056213 
	C399.127106,299.299530 387.719513,300.483429 376.125885,300.401062 
	C347.462921,300.197388 318.797455,300.353241 290.133240,300.283386 
	C288.182983,300.278656 285.691833,301.282684 284.451233,298.551819 
	C285.499359,295.896332 287.815430,296.723022 289.631348,296.735657 
	C294.827179,296.771729 299.902618,296.023376 304.987152,295.064209 
	C312.056213,293.730682 315.638062,289.216614 316.549408,282.450348 
	C317.148438,278.002655 317.218079,273.484222 317.540863,268.998596 
	C317.822388,265.086487 315.097260,265.254852 312.536835,265.378510 
	C298.048004,266.078339 283.864075,264.054688 270.315125,259.138794 
	C247.672455,250.923462 228.515945,237.854797 215.765350,216.782532 
	C214.308243,214.374420 212.632797,213.203262 209.860062,212.994110 
	C205.741714,212.683441 201.648102,212.045029 197.759445,211.572327 
	C195.810089,213.258484 196.412598,215.219131 196.408279,216.958328 
	C196.365326,234.290161 196.321060,251.622620 196.437180,268.953827 
	C196.467239,273.437469 196.899979,277.936035 197.427628,282.394623 
	C198.240646,289.264435 201.736206,293.110779 208.559265,294.896271 
	C213.738449,296.251556 219.013657,296.819580 224.382874,296.742371 
	C226.210892,296.716064 228.462082,295.952515 229.698883,298.282959 
	C226.518738,301.179688 143.471558,301.205627 140.141357,298.321716 
	C141.155731,296.081909 143.232590,296.769409 144.917694,296.731384 
	C148.583420,296.648712 152.211258,296.474274 155.859360,295.924866 
	C167.862762,294.117188 172.137085,290.558014 172.446030,278.704163 
	C173.018951,256.720184 172.665665,234.712662 172.769516,212.715271 
	C172.784134,209.618729 171.078842,208.633881 168.443207,208.430893 
	C136.498962,205.970871 105.361542,208.363464 77.280365,225.687851 
	C43.656162,246.431992 25.105860,276.289673 26.542450,316.400940 
	C27.628351,346.720581 43.296349,369.683258 67.562294,386.726105 
	C97.407524,407.687469 130.983398,413.432220 166.598480,408.499237 
	C192.091385,404.968231 214.381882,394.407684 232.602661,375.993347 
	C248.824203,359.599487 258.502075,340.026062 258.538361,316.704285 
	C258.575348,292.932373 247.935669,274.166138 229.189301,259.879059 
	C223.609009,255.626190 217.593338,252.052414 210.980225,249.574295 
	C209.747055,249.112198 208.486923,248.641800 207.749252,247.484543 
	C208.245773,245.721954 209.522751,246.152756 210.628159,246.281418 
	C246.451202,250.450623 274.286743,280.076019 274.848663,316.127228 
	C275.228333,340.487183 265.075165,361.076019 247.879013,378.096100 
	C225.702606,400.045502 198.467560,411.154663 167.902603,415.504517 
	C143.821625,418.931610 120.340454,417.049408 97.537178,408.894928 
	C66.658073,397.852509 42.314377,378.758942 28.185699,348.545197 
	C9.162500,307.864746 21.874697,260.750061 55.413853,231.085953 
	C77.002563,211.991592 102.496964,202.083710 130.866989,198.796616 
	C142.850555,197.408142 154.810715,197.665176 166.762924,198.862625 
	C171.292282,199.316376 172.973282,197.883545 172.847382,193.127975 
	C172.534317,181.303421 172.770676,169.465424 172.672241,157.633789 
	C172.536530,141.322159 167.181870,135.984314 150.723251,135.322189 
	C147.221024,135.181290 143.519028,136.202255 140.216385,134.297958 
	C140.257660,131.709625 141.978485,131.793747 143.393753,131.793015 
	C165.390900,131.781616 187.388077,131.811584 209.385178,131.860367 
	C210.017960,131.861771 210.650055,132.174377 211.447540,132.385605 
	C211.868332,135.451416 209.960800,136.544479 207.608429,137.244843 
	C201.186722,139.156723 198.075211,143.931015 197.435257,150.131500 
	C195.824371,165.739151 196.454224,181.421310 196.374435,197.078995 
	C196.360245,199.865036 197.778427,200.982559 200.186691,201.367065 
	C202.645370,201.759598 205.116196,202.045959 207.835403,201.363922 
	C208.621353,198.170792 206.916290,195.259140 206.671143,192.201126 
	C203.701508,155.156601 218.858841,126.182541 246.793030,103.236290 
	C263.334534,89.648438 282.629913,81.626472 304.125000,77.803322 
M305.459839,136.910339 
	C298.674866,134.568527 291.234039,136.288788 284.098175,134.414825 
	C285.528839,130.921539 287.829254,131.796692 289.649384,131.785767 
	C302.480408,131.708817 315.313568,131.610809 328.143127,131.762482 
	C343.503174,131.944077 342.393158,129.202393 341.833160,145.511017 
	C341.135101,165.839859 341.521576,186.156509 341.369141,206.477570 
	C341.355774,208.258942 340.888702,210.146652 342.226593,212.192154 
	C352.124573,211.439362 360.269409,207.492661 365.724579,198.725937 
	C366.989685,196.692871 368.230865,195.197723 370.880890,196.836670 
	C373.324432,198.347916 372.580933,200.021729 371.527618,201.920517 
	C365.101166,213.505295 357.495331,223.856125 344.190918,228.305771 
	C342.863159,228.749832 341.534973,229.356186 341.517914,230.904816 
	C341.440063,237.961288 341.483765,245.019119 341.483765,252.458817 
	C348.956024,251.198761 354.476196,247.644882 359.907654,244.274780 
	C382.046204,230.538391 396.091736,211.166321 397.448273,184.661667 
	C398.825928,157.745728 382.583771,132.543457 356.081421,122.291641 
	C354.551392,121.699799 352.304260,121.897606 351.934021,119.494553 
	C353.174530,118.433304 354.562714,118.742966 355.829376,118.913261 
	C385.437897,122.893822 408.395355,142.923218 414.051666,170.425858 
	C419.138336,195.158844 410.289795,216.044968 393.088898,233.600067 
	C380.091736,246.864822 364.026489,255.130188 346.321838,260.345428 
	C343.933167,261.049072 341.301392,261.332581 341.351868,264.835114 
	C341.475952,273.442017 341.844391,282.092377 337.736176,289.838654 
	C339.232056,291.065674 340.433807,290.941071 341.582855,290.935150 
	C354.746063,290.867401 367.919128,291.078583 381.070312,290.639069 
	C415.104706,289.501648 445.766479,264.772705 455.397156,230.643265 
	C464.143890,199.646225 458.565033,169.989609 440.822357,143.248657 
	C406.087799,90.898453 338.111908,69.855034 279.812500,93.667328 
	C247.906876,106.699127 225.386093,129.218796 216.619766,163.551300 
	C211.604568,183.192795 213.435135,201.893219 225.652939,218.796082 
	C236.836044,234.267487 251.912918,244.623734 269.385468,251.697250 
	C282.857910,257.151367 296.977753,259.132904 311.453003,258.753479 
	C314.494507,258.673798 317.664886,258.682159 317.606476,254.168686 
	C317.515839,247.170990 317.551514,240.170700 317.621826,233.172394 
	C317.645782,230.790009 316.839996,229.412064 314.298401,229.156631 
	C310.991852,228.824341 307.704865,228.299545 304.407593,227.871948 
	C283.284546,225.132797 262.341095,221.309662 241.393036,217.503464 
	C234.105225,216.179306 229.862656,212.293350 228.516312,204.991318 
	C234.401840,204.087784 240.119415,205.621811 245.809067,206.278275 
	C268.296570,208.872925 290.871063,210.474197 313.398895,212.595810 
	C315.948212,212.835907 317.605621,212.185272 317.593170,209.169281 
	C317.518311,191.007156 317.829834,172.835236 317.304321,154.687088 
	C317.086456,147.162231 315.465088,139.466110 305.459839,136.910339 
z"/>
</svg>